<?xml version="1.0" encoding="UTF-8" standalone="no"?>
<!-- Created with Inkscape (http://www.inkscape.org/) -->

<svg
   xmlns:dc="http://purl.org/dc/elements/1.1/"
   xmlns:cc="http://creativecommons.org/ns#"
   xmlns:rdf="http://www.w3.org/1999/02/22-rdf-syntax-ns#"
   xmlns:svg="http://www.w3.org/2000/svg"
   xmlns="http://www.w3.org/2000/svg"
   xmlns:sodipodi="http://sodipodi.sourceforge.net/DTD/sodipodi-0.dtd"
   xmlns:inkscape="http://www.inkscape.org/namespaces/inkscape"
   width="210mm"
   height="297mm"
   id="svg2"
   version="1.1"
   inkscape:version="0.48.1 r9760"
   sodipodi:docname="thoth.svg">
  <defs
     id="defs4" />
  <sodipodi:namedview
     id="base"
     pagecolor="#ffffff"
     bordercolor="#666666"
     borderopacity="1.0"
     inkscape:pageopacity="0.0"
     inkscape:pageshadow="2"
     inkscape:zoom="0.7"
     inkscape:cx="541.70676"
     inkscape:cy="560.27534"
     inkscape:document-units="px"
     inkscape:current-layer="layer1"
     showgrid="false"
     inkscape:window-width="1133"
     inkscape:window-height="706"
     inkscape:window-x="0"
     inkscape:window-y="0"
     inkscape:window-maximized="0" />
  <metadata
     id="metadata7">
    <rdf:RDF>
      <cc:Work
         rdf:about="">
        <dc:format>image/svg+xml</dc:format>
        <dc:type
           rdf:resource="http://purl.org/dc/dcmitype/StillImage" />
        <dc:title></dc:title>
      </cc:Work>
    </rdf:RDF>
  </metadata>
  <g
     inkscape:label="Calque 1"
     inkscape:groupmode="layer"
     id="layer1">
    <path
       style="fill:#000000"
       d="m 426.87597,536.18359 c -0.0138,-0.91285 2.52138,-1.25 9.39934,-1.25 5.18002,0 10.13002,-0.27314 11,-0.60699 1.89656,-0.72777 2.13946,-5.91404 0.33179,-7.08399 -0.6875,-0.44496 -6.425,-0.80902 -12.75,-0.80902 l -11.5,0 -0.64629,-5.5 c -1.86784,-15.89541 -6.12651,-24.74242 -13.81817,-28.70606 -5.35156,-2.75774 -5.79491,-3.20659 -4.16333,-4.21497 1.91607,-1.18419 9.30776,-0.22035 20.12779,2.62457 20.52342,5.39624 24.34524,5.41654 28.26566,0.15019 1.93197,-2.59524 1.93394,-2.70789 0.10215,-5.84095 -1.24314,-2.12625 -4.04167,-4.27076 -8.36781,-6.41225 -12.07884,-5.97916 -34.48246,-17.88962 -37.1612,-19.75605 -6.81834,-4.75071 -13.1799,-6.82474 -20.9638,-6.83471 -11.93316,-0.0153 -13.68855,-0.60362 -14.86779,-4.98301 -0.62608,-2.32507 -0.66919,-5.51274 -0.1147,-8.48079 1.0601,-5.67443 -0.18129,-11.09497 -2.87052,-12.5342 -1.03978,-0.55648 -3.86665,-1.01177 -6.28193,-1.01177 -5.22278,0 -7.90424,2.3531 -11.74006,10.30244 -2.49138,5.16313 -2.52757,5.189 -10.5,7.50419 -10.76296,3.12557 -20.96845,7.9751 -24.97828,11.8694 -2.34136,2.50492 11.81386,-0.32697 21.57769,-3.60185 5.72032,-1.88175 12.54765,-4.73772 15.17182,-6.34661 2.62418,-1.60889 5.36831,-2.69613 6.09807,-2.4161 0.83643,0.32097 1.57301,3.15799 1.9929,7.67584 0.72757,7.82834 2.01003,10.92641 7.50606,18.13247 1.99746,2.61895 4.44256,5.91644 5.43355,7.32777 0.991,1.41133 4.366,4.25958 7.5,6.32945 4.54518,3.00188 5.75863,4.36635 5.99689,6.7432 0.16429,1.63889 0.98352,5.10395 1.82051,7.70013 l 1.52181,4.72033 -4.17968,9.53033 c -2.29882,5.24168 -5.48337,11.33004 -7.07678,13.52967 l -2.8971,3.99934 -10.74373,-0.0153 c -5.90905,-0.008 -11.36388,-0.40811 -12.12185,-0.8882 -1.74697,-1.10651 -0.58075,-3.09649 1.81469,-3.09649 1.0002,0 2.37432,-0.66968 3.05361,-1.48817 1.00275,-1.20824 0.91963,-1.60921 -0.44188,-2.13167 -2.89577,-1.11121 -11.95013,0.45018 -13.2983,2.29324 -1.88277,2.57391 -1.63784,11.96379 0.33179,12.71961 0.86998,0.33384 8.04063,0.60698 15.93477,0.60698 l 14.35298,0 z m -9.28262,-3.95393 c 1.22994,-0.23736 3.47994,-0.24351 5,-0.0136 1.52006,0.22985 0.26121,-2.22759 -2.48879,-2.22008 -2.75,0.008 -3.74115,2.47109 -2.51121,2.23373 z m -28.15446,-3.90306 c -2.1798,-0.83647 -1.98746,-2.17236 0.848,-5.88985 1.33638,-1.75209 3.58529,-7.17133 4.99757,-12.04277 l 2.56778,-8.85714 -1.99757,-3.83242 c -2.54991,-4.89211 -2.5114,-5.77186 0.25243,-5.76634 3.59317,0.007 14.15386,10.06242 15.58498,14.83905 1.9718,6.58129 3.17168,18.44351 2.00747,19.8463 -0.63767,0.76834 -4.49918,1.3622 -10.18476,1.56631 -5.03673,0.18082 -9.90839,0.42216 -10.8259,0.53631 -0.91752,0.11415 -2.38002,-0.0656 -3.25,-0.39945 z m 14.85277,-44.9848 c -2.73864,-1.14428 -5.28283,-1.40773 -9.04962,-0.9371 -5.03551,0.62914 -5.40165,0.50859 -9.38485,-3.09 -2.27971,-2.05957 -5.06005,-5.57538 -6.17853,-7.8129 -1.11849,-2.23751 -3.61256,-5.71509 -5.54239,-7.72794 -5.19819,-5.42183 -3.98199,-6.2525 8.00434,-5.46699 11.09536,0.72712 15.49579,2.2526 24.78132,8.59085 3.19091,2.17809 11.4926,6.66209 18.44819,9.96443 7.36446,3.49647 12.37973,6.43596 12.00774,7.03785 -1.1026,1.78404 -28.59032,1.3203 -33.0862,-0.5582 z"
       id="path3050"
       inkscape:connector-curvature="0"
       sodipodi:nodetypes="cscsscsssssssssssssssccsssssssscssccssssssscccccccssscscsssssssssssssss"
       inkscape:export-filename="/home/fbianco/unige/devel/analysis/thoth/thoth.png"
       inkscape:export-xdpi="90"
       inkscape:export-ydpi="90" />
  </g>
</svg>
